<svg width="65" height="66" viewBox="0 0 65 66" fill="none" xmlns="http://www.w3.org/2000/svg">
<path d="M30 51C30 59.2843 23.2843 66 15 66C6.71573 66 0 59.2843 0 51C0 42.7157 6.71573 36 15 36C23.2843 36 30 42.7157 30 51Z" fill="#F58D82"/>
<path d="M65 51C65 59.2843 58.2843 66 50 66C41.7157 66 35 59.2843 35 51C35 42.7157 41.7157 36 50 36C58.2843 36 65 42.7157 65 51Z" fill="#F58D82"/>
<path d="M32 15C32 23.2843 25.2843 30 17 30C8.71573 30 2 23.2843 2 15C2 6.71573 8.71573 0 17 0C25.2843 0 32 6.71573 32 15Z" fill="#F58D82"/>
</svg>
