<svg width="118" height="102" viewBox="0 0 118 102" fill="none" xmlns="http://www.w3.org/2000/svg">
<path d="M66.1426 51.7851C66.7276 55.0724 64.5285 58.2633 61.1898 58.3125C55.8483 58.3912 50.5272 57.3275 45.5916 55.1648C38.801 52.1893 33.0452 47.2671 29.0519 41.0206C25.0587 34.7742 23.0075 27.4841 23.1576 20.0722C23.2667 14.6851 24.5352 9.40951 26.8492 4.59506C28.2955 1.58575 32.1151 0.929681 34.8533 2.84069L38.8411 5.62379C41.5793 7.5348 42.1475 11.3013 41.1136 14.476C40.4917 16.3858 40.15 18.3867 40.1089 20.4167C40.0267 24.4761 41.1501 28.4688 43.3372 31.8899C45.5242 35.311 48.6766 38.0069 52.3958 39.6365C54.2556 40.4515 56.2153 40.9815 58.2098 41.2189C61.5255 41.6135 64.7057 43.7104 65.2907 46.9977L66.1426 51.7851Z" fill="#FDC62C"/>
<path d="M54.21 48.3332C53.744 45.0269 56.0568 41.9174 59.3951 41.9887C64.736 42.1028 70.0152 43.3579 74.8696 45.6972C81.5484 48.9159 87.1229 54.0426 90.8881 60.429C94.6533 66.8154 96.4402 74.1748 96.0227 81.5764C95.7192 86.956 94.2612 92.1824 91.7749 96.9102C90.2209 99.8654 86.3801 100.383 83.7127 98.3746L79.8279 95.4495C77.1604 93.4409 76.7286 89.6564 77.8764 86.521C78.5668 84.635 78.9804 82.6476 79.0948 80.6205C79.3234 76.5667 78.3448 72.5361 76.2826 69.0383C74.2205 65.5405 71.1674 62.7327 67.5094 60.9698C65.6803 60.0884 63.741 59.488 61.7563 59.1788C58.457 58.6648 55.3545 56.4545 54.8886 53.1482L54.21 48.3332Z" fill="#FDC62C"/>
</svg>
