<svg width="73" height="82" viewBox="0 0 73 82" fill="none" xmlns="http://www.w3.org/2000/svg">
<path d="M71.9914 67.9914C72.7724 68.7724 72.7755 70.0426 71.959 70.7865C67.814 74.5627 62.9653 77.4964 57.683 79.4155C51.7733 81.5625 45.4647 82.3873 39.2016 81.8319C32.9386 81.2765 26.8736 79.3543 21.434 76.2009C15.9943 73.0474 11.3124 68.7394 7.71821 63.5804C4.12399 58.4214 1.70489 52.5369 0.631372 46.3416C-0.442143 40.1463 -0.143949 33.791 1.50494 27.7235C3.15383 21.6559 6.1133 16.0238 10.1748 11.224C13.8051 6.93374 18.237 3.40175 23.2155 0.821834C24.1962 0.313617 25.3866 0.756539 25.8487 1.75982L29.2981 9.24953C29.7602 10.2528 29.3177 11.435 28.3466 11.9613C24.9902 13.7802 21.9965 16.2111 19.523 19.1343C16.6182 22.5672 14.5015 26.5953 13.3222 30.9349C12.1429 35.2745 11.9297 39.8199 12.6975 44.2508C13.4652 48.6817 15.1954 52.8904 17.766 56.5802C20.3367 60.27 23.6852 63.3511 27.5757 65.6065C31.4662 67.8619 35.804 69.2367 40.2834 69.6339C44.7628 70.0311 49.2748 69.4412 53.5014 67.9056C57.1005 66.5981 60.4181 64.632 63.2872 62.1137C64.1174 61.3851 65.3796 61.3796 66.1607 62.1607L71.9914 67.9914Z" fill="#FDC62C"/>
</svg>
